<svg fill="#000000" height="800px" width="800px" version="1.1" id="Capa_1" xmlns="http://www.w3.org/2000/svg" xmlns:xlink="http://www.w3.org/1999/xlink" 
	 viewBox="0 0 590.858 590.858" xml:space="preserve">
<g>
	<g>
		<path d="M590.269,224.437c-1.224-3.672-4.692-6.324-8.568-6.528l-202.164-13.464L304.261,6.361c-1.428-3.876-5.1-6.324-9.18-6.324
			l0,0c-4.08,0-7.752,2.448-9.18,6.324l-74.664,198.288L9.073,218.521c-3.876,0.204-7.344,2.856-8.568,6.732
			c-1.224,3.672-0.204,7.956,2.856,10.404l156.468,136.068l-49.776,207.06c-1.02,3.876,0.612,7.956,3.876,10.2
			c1.632,1.224,3.672,1.836,5.508,1.836s3.672-0.612,5.508-1.632l170.952-114.036l171.156,113.424
			c1.632,1.02,3.468,1.632,5.304,1.632l0,0c5.304,0,9.792-4.284,9.792-9.792c0-1.02-0.204-2.244-0.612-3.264l-50.388-206.04
			l156.06-136.476C590.473,232.189,591.697,228.109,590.269,224.437z M414.013,360.505c-2.652,2.448-3.876,6.12-3.06,9.588
			l46.104,188.496L301.201,455.161c-3.264-2.244-7.548-2.244-10.812,0L134.737,558.997l45.492-188.496
			c0.816-3.468-0.408-7.344-3.06-9.588L33.961,236.473l184.824-12.852c3.876-0.204,7.14-2.652,8.364-6.324l67.728-179.928
			l68.34,179.724c1.428,3.468,4.692,6.12,8.568,6.324l184.824,12.24L414.013,360.505z"/>
		<path d="M297.325,86.737c-2.652-1.02-5.508,0.408-6.528,3.06l-46.308,122.4c-1.02,2.652,0.408,5.508,3.06,6.528
			c0.612,0.204,1.224,0.408,1.836,0.408c2.04,0,4.08-1.224,4.692-3.264l46.104-122.604
			C301.201,90.613,299.977,87.553,297.325,86.737z"/>
	</g>
</g>
</svg>